<svg xmlns="http://www.w3.org/2000/svg" xmlns:xlink="http://www.w3.org/1999/xlink" version="1.1" width="1080" height="1080" viewBox="0 0 1080 1080" xml:space="preserve">
<desc>Created with Fabric.js 3.5.0</desc>
<defs>
</defs>
<rect x="0" y="0" width="100%" height="100%" fill="#ffffff"/>
<g transform="matrix(9.9365 0 0 9.9365 208.0749 871.9242)" id="685288">
<g style="" vector-effect="non-scaling-stroke">
		<g transform="matrix(1 0 0 1 0.1504 1.7603)">
<linearGradient id="SVGID_4" gradientUnits="userSpaceOnUse" gradientTransform="matrix(-0.977 -0.323 -0.29 0.877 -375.944 -928.287)" x1="-645.732" y1="839.188" x2="-654.59" y2="839.25">
<stop offset="23.1%" style="stop-color:rgb(153,152,117);stop-opacity: 1"/>
<stop offset="56.3%" style="stop-color:rgb(155,153,119);stop-opacity: 1"/>
<stop offset="68.30000000000001%" style="stop-color:rgb(160,159,126);stop-opacity: 1"/>
<stop offset="76.8%" style="stop-color:rgb(169,168,137);stop-opacity: 1"/>
<stop offset="83.7%" style="stop-color:rgb(183,182,154);stop-opacity: 1"/>
<stop offset="89.60000000000001%" style="stop-color:rgb(201,199,176);stop-opacity: 1"/>
<stop offset="94.8%" style="stop-color:rgb(222,221,203);stop-opacity: 1"/>
<stop offset="99.4%" style="stop-color:rgb(248,246,235);stop-opacity: 1"/>
<stop offset="100%" style="stop-color:rgb(251,249,239);stop-opacity: 1"/>
</linearGradient>
<path style="stroke: none; stroke-width: 1; stroke-dasharray: none; stroke-linecap: butt; stroke-dashoffset: 0; stroke-linejoin: miter; stroke-miterlimit: 4; is-custom-font: none; font-file-url: none; fill: url(#SVGID_4); fill-rule: nonzero; opacity: 1;" transform=" translate(-16.1503, -17.7604)" d="M 16.62 30 l -0.751 -0.249 s 0.1 -3.8 -1.275 -4.067 c -0.9 -1.048 0.133 -44.741 3.423 -0.149 a 2.712 2.712 0 0 0 -1.333 1.523 A 14.1 14.1 0 0 0 16.62 30 Z" stroke-linecap="round"/>
</g>
		<g transform="matrix(1 0 0 1 3.086 -1.799)">
<linearGradient id="SVGID_5" gradientUnits="userSpaceOnUse" gradientTransform="matrix(-0.977 -0.323 -0.29 0.877 -375.944 -928.287)" x1="-644.287" y1="823.405" x2="-657.028" y2="845.476">
<stop offset="0%" style="stop-color:rgb(72,165,71);stop-opacity: 1"/>
<stop offset="100%" style="stop-color:rgb(63,145,67);stop-opacity: 1"/>
</linearGradient>
<path style="stroke: none; stroke-width: 1; stroke-dasharray: none; stroke-linecap: butt; stroke-dashoffset: 0; stroke-linejoin: miter; stroke-miterlimit: 4; is-custom-font: none; font-file-url: none; fill: url(#SVGID_5); fill-rule: nonzero; opacity: 1;" transform=" translate(-19.086, -14.201)" d="M 17.026 26.329 a 13.223 13.223 0 0 0 5 -13.225 C 20.556 6.619 17.075 4.487 16.7 3.673 a 9.792 9.792 0 0 1 -0.825 -1.6 l 0.277 18.069 S 15.578 25.664 17.026 26.329 Z" stroke-linecap="round"/>
</g>
		<g transform="matrix(1 0 0 1 -3.0291 -1.7155)">
<linearGradient id="SVGID_6" gradientUnits="userSpaceOnUse" gradientTransform="matrix(-0.977 -0.323 -0.29 0.877 -375.944 -928.287)" x1="-643.386" y1="839.485" x2="-652.418" y2="833.417">
<stop offset="0%" style="stop-color:rgb(65,162,71);stop-opacity: 1"/>
<stop offset="35.199999999999996%" style="stop-color:rgb(75,167,75);stop-opacity: 1"/>
<stop offset="95.6%" style="stop-color:rgb(103,181,84);stop-opacity: 1"/>
<stop offset="100%" style="stop-color:rgb(105,182,85);stop-opacity: 1"/>
</linearGradient>
<path style="stroke: none; stroke-width: 1; stroke-dasharray: none; stroke-linecap: butt; stroke-dashoffset: 0; stroke-linejoin: miter; stroke-miterlimit: 4; is-custom-font: none; font-file-url: none; fill: url(#SVGID_6); fill-rule: nonzero; opacity: 1;" transform=" translate(-12.9709, -14.2845)" d="M 15.487 26.569 S 9.366 22.4 9.72 15.025 A 15.54 15.54 0 0 1 15.239 3.377 A 1.725 1.725 0 0 0 15.846 2 c 0.381 0.82 0.319 12.243 0.359 13.579 C 16.36 20.776 15.916 25.588 15.487 26.569 Z" stroke-linecap="round"/>
</g>
</g>
</g>
</svg>