<svg xmlns="http://www.w3.org/2000/svg" data-name="Layer 1" viewBox="0 0 128 128" id="quote"><path d="M50 11h62a2.002 2.002 0 0 1 2 2v77a2 2 0 0 0 4 0V13a6.007 6.007 0 0 0-6-6H50a2 2 0 0 0 0 4zm28 106H16a2.003 2.003 0 0 1-2-2V38a2 2 0 0 0-4 0v77a6.007 6.007 0 0 0 6 6h62a2 2 0 0 0 0-4z"></path><rect width="78" height="44" x="25" y="42" rx="2" ry="2"></rect><path d="M89.394 96h-.027a2.098 2.098 0 0 0-.913 3.82c4.95 3.326 5.27 7.176 4.387 10.157H86a2 2 0 0 0-2 2V126a2 2 0 0 0 2 2h16a2 2 0 0 0 2-2v-17.817a11.248 11.248 0 0 0-2.308-6.996c-1.806-2.318-5.407-5.1-12.298-5.187zm36.298 5.188c-1.806-2.319-5.407-5.1-12.298-5.188a2.097 2.097 0 0 0-.94 3.82c4.95 3.326 5.27 7.176 4.387 10.157H110a2 2 0 0 0-2 2V126a2 2 0 0 0 2 2h16a2 2 0 0 0 2-2v-17.817a11.248 11.248 0 0 0-2.308-6.996zM38.606 32h.027a2.098 2.098 0 0 0 .913-3.82c-4.95-3.327-5.27-7.176-4.387-10.157H42a2 2 0 0 0 2-2V2a2 2 0 0 0-2-2H26a2 2 0 0 0-2 2v17.817a11.253 11.253 0 0 0 2.308 6.996c1.806 2.317 5.406 5.099 12.298 5.187zm-23.973 0a2 2 0 0 0 1.144-3.64 1.984 1.984 0 0 0-.231-.18c-4.95-3.327-5.27-7.176-4.387-10.157H18a2 2 0 0 0 2-2V2a2 2 0 0 0-2-2H2a2 2 0 0 0-2 2v17.817a11.253 11.253 0 0 0 2.308 6.996C4.114 29.13 7.714 31.912 14.606 32z"></path></svg>